<svg height="512pt" viewBox="-6 0 511 512" width="512pt" xmlns="http://www.w3.org/2000/svg"><path d="m487.882812 504.511719h-474.90625c-2.753906 0-4.988281-2.234375-4.988281-4.988281v-20.113282c0-2.757812 2.234375-4.992187 4.988281-4.992187h474.90625c2.757813 0 4.992188 2.234375 4.992188 4.992187v20.113282c0 2.753906-2.234375 4.988281-4.992188 4.988281zm0 0" fill="#945b44"/><path d="m492.878906 479.410156v20.117188c0 2.753906-2.238281 4.988281-4.992187 4.988281h-18.636719c2.753906 0 4.988281-2.234375 4.988281-4.988281v-20.117188c0-2.753906-2.234375-4.988281-4.988281-4.988281h18.636719c2.753906 0 4.992187 2.234375 4.992187 4.988281zm0 0" fill="#87523e"/><path d="m235.417969 40.984375h30.027343v433.4375h-30.027343zm0 0" fill="#bd7c63"/><path d="m250.429688 40.984375h15.015624v433.4375h-15.015624zm0 0" fill="#ac6a51"/><path d="m279.628906 36.683594c0 16.125-13.074218 29.195312-29.199218 29.195312s-29.195313-13.070312-29.195313-29.195312 13.070313-29.195313 29.195313-29.195313 29.199218 13.070313 29.199218 29.195313zm0 0" fill="#945b44"/><path d="m279.628906 36.683594c0 16.121094-13.078125 29.199218-29.199218 29.199218-10.789063 0-20.222657-5.859374-25.273438-14.574218 4.300781 2.496094 9.304688 3.921875 14.625 3.921875 16.128906 0 29.195312-13.074219 29.195312-29.195313 0-5.332031-1.425781-10.332031-3.921874-14.625 8.714843 5.050782 14.574218 14.472656 14.574218 25.273438zm0 0" fill="#87523e"/><path d="m103.125 219.542969 20.988281 25.40625c1.230469 1.488281 3.066407 2.355469 5 2.355469h136.332031v-63.78125h-136.332031c-1.9375 0-3.769531.863281-5 2.355468l-20.988281 25.402344c-1.980469 2.398438-1.980469 5.863281 0 8.261719zm0 0" fill="#e1d3ce"/><path d="m103.125 313.203125 20.988281 25.402344c1.230469 1.492187 3.066407 2.355469 5 2.355469h136.332031v-63.78125h-136.332031c-1.9375 0-3.769531.867187-5 2.355468l-20.988281 25.40625c-1.980469 2.398438-1.980469 5.863282 0 8.261719zm0 0" fill="#fff5f5"/><path d="m397.734375 117.625-20.984375-25.40625c-1.230469-1.488281-3.066406-2.355469-5-2.355469h-136.332031v63.78125h136.332031c1.933594 0 3.769531-.863281 5-2.355469l20.984375-25.402343c1.984375-2.398438 1.984375-5.863281 0-8.261719zm0 0" fill="#fff5f5"/><path d="m397.738281 125.886719-20.984375 25.402343c-1.238281 1.488282-3.074218 2.355469-5 2.355469h-17.308594c1.9375 0 3.773438-.867187 5-2.355469l20.992188-25.402343c1.976562-2.398438 1.976562-5.859375 0-8.265625l-20.992188-25.40625c-1.226562-1.484375-3.0625-2.34375-5-2.34375h17.308594c1.925782 0 3.761719.859375 5 2.34375l20.984375 25.40625c1.976563 2.402344 1.976563 5.867187 0 8.265625zm0 0" fill="#efe2dd"/><path d="m160.492188 441.367188c-.003907 0-.011719 0-.015626 0-1.089843 0-2.089843-.554688-2.671874-1.472657-9.933594-15.761719-26.53125-26.097656-45.34375-26.097656s-35.40625 10.335937-45.34375 26.097656c-.582032.917969-1.582032 1.472657-2.667969 1.472657-.007813 0-.011719 0-.019531 0-18.085938 0-32.746094 14.660156-32.746094 32.746093h161.558594c0-18.085937-14.664063-32.746093-32.75-32.746093zm0 0" fill="#baed6a"/><path d="m436.433594 441.367188c-.007813 0-.011719 0-.019532 0-1.089843 0-2.089843-.554688-2.667968-1.472657-9.9375-15.761719-26.535156-26.097656-45.34375-26.097656-18.8125 0-35.410156 10.335937-45.347656 26.097656-.578126.917969-1.578126 1.472657-2.667969 1.472657-.003907 0-.011719 0-.019531 0-18.085938 0-32.746094 14.660156-32.746094 32.746093h161.558594c0-18.085937-14.660157-32.746093-32.746094-32.746093zm0 0" fill="#baed6a"/><path d="m193.242188 474.109375h-18.136719c-3.792969-13.882813-16.5-24.09375-31.59375-24.09375 0 0-.007813 0-.019531 0-1.085938.007813-2.085938-.550781-2.664063-1.46875-9.933594-15.761719-26.53125-26.101563-45.347656-26.101563-4.960938 0-9.773438.71875-14.34375 2.074219 8.882812-6.757812 19.683593-10.71875 31.324219-10.71875 18.8125 0 35.414062 10.328125 45.347656 26.089844.578125.917969 1.578125 1.476563 2.664062 1.476563h.019532c18.085937.003906 32.75 14.664062 32.75 32.742187zm0 0" fill="#a3e72d"/><path d="m469.179688 474.109375h-17.449219c-3.792969-13.882813-16.5-24.09375-31.59375-24.09375h-.007813c-1.089844.007813-2.097656-.550781-2.675781-1.46875-9.933594-15.761719-26.535156-26.101563-45.339844-26.101563-5.378906 0-10.589843.847657-15.511719 2.433594 8.972657-6.976562 19.953126-11.078125 31.800782-11.078125 18.808594 0 35.410156 10.332031 45.339844 26.09375.578124.917969 1.585937 1.476563 2.675781 1.476563h.011719c18.085937 0 32.75 14.660156 32.75 32.738281zm0 0" fill="#a3e72d"/><path d="m250.429688 183.523438h15.015624v63.78125h-15.015624zm0 0" fill="#cdbfba"/><path d="m250.429688 277.179688h15.015624v63.78125h-15.015624zm0 0" fill="#efe2dd"/><path d="m487.882812 466.933594h-11.867187c-3.261719-18.011719-18.542969-31.894532-37.214844-32.984375-11.78125-17.351563-30.460937-27.640625-50.402343-27.640625-19.9375 0-38.617188 10.289062-50.398438 27.640625-18.671875 1.089843-33.953125 14.972656-37.214844 32.984375h-27.851562v-53.136719c0-4.136719-3.355469-7.488281-7.488282-7.488281-4.136718 0-7.488281 3.351562-7.488281 7.488281v53.136719h-15.054687v-118.484375h15.054687v30.664062c0 4.136719 3.351563 7.488281 7.488281 7.488281 4.132813 0 7.488282-3.351562 7.488282-7.488281v-217.980469h98.816406c4.183594 0 8.109375-1.851562 10.773438-5.074218l20.984374-25.40625c4.257813-5.15625 4.257813-12.640625 0-17.796875l-20.984374-25.40625c-2.664063-3.222657-6.589844-5.070313-10.773438-5.070313h-98.816406v-16.757812c8.621094-6.714844 14.179687-17.1875 14.179687-28.9375 0-20.226563-16.457031-36.683594-36.683593-36.683594-20.226563 0-36.683594 16.457031-36.683594 36.683594 0 11.75 5.5625 22.21875 14.183594 28.9375v110.414062h-98.816407c-4.183593 0-8.109375 1.851563-10.773437 5.074219l-20.984375 25.40625c-4.261719 5.15625-4.261719 12.640625 0 17.796875l20.984375 25.402344c2.664062 3.226562 6.589844 5.074218 10.773437 5.074218h28.816407c4.136718 0 7.488281-3.351562 7.488281-7.484374 0-4.136719-3.351563-7.488282-7.488281-7.488282h-28.34375l-20.160157-24.40625 20.160157-24.402344h128.375v48.808594h-64.71875c-4.132813 0-7.484376 3.347656-7.484376 7.484375s3.351563 7.488281 7.484376 7.488281h34.6875v14.90625h-98.820313c-4.179687 0-8.105469 1.847657-10.769531 5.074219l-20.984375 25.402344c-4.261719 5.15625-4.261719 12.640625 0 17.796875l20.984375 25.402344c2.664062 3.226562 6.589844 5.078125 10.769531 5.078125h98.820313v118.484375h-27.855469c-3.261719-18.011719-18.542969-31.894532-37.214844-32.984375-11.78125-17.351563-30.457031-27.640625-50.398437-27.640625-19.941407 0-38.617188 10.289062-50.402344 27.640625-18.667969 1.089843-33.949219 14.972656-37.210938 32.984375h-11.871094c-6.878906 0-12.476562 5.59375-12.476562 12.476562v20.113282c0 6.878906 5.597656 12.476562 12.476562 12.476562h474.90625c6.878907 0 12.476563-5.597656 12.476563-12.476562v-20.113282c0-6.878906-5.59375-12.476562-12.476563-12.476562zm-116.605468-369.582032 20.160156 24.402344-20.160156 24.40625h-128.375v-48.808594zm-120.847656-82.378906c11.972656 0 21.710937 9.738282 21.710937 21.710938 0 11.96875-9.738281 21.707031-21.710937 21.707031-11.96875 0-21.707032-9.738281-21.707032-21.707031 0-11.972656 9.738282-21.710938 21.707032-21.710938zm0 58.394532c2.582031 0 5.097656-.273438 7.53125-.78125v9.792968h-15.058594v-9.792968c2.433594.507812 4.949218.78125 7.527344.78125zm-7.527344 102.667968v-14.902344h15.058594v14.902344zm97.484375 272.820313c3.675781 0 7.042969-1.859375 9.003906-4.96875 8.921875-14.15625 23.503906-22.605469 39.007813-22.605469 15.507812 0 30.089843 8.449219 39.011718 22.605469 1.960938 3.109375 5.328125 4.96875 9.003906 4.96875h.015626c11.324218 0 20.933593 7.488281 24.128906 17.773437h-144.320313c3.199219-10.285156 12.808594-17.773437 24.148438-17.773437zm-97.484375-194.066407h15.058594v14.90625h-15.058594zm-113.316406 78.6875-20.160157-24.40625 20.160157-24.402343h128.375v48.804687h-128.375zm-65.136719 115.378907c3.675781 0 7.039062-1.859375 9-4.96875 8.921875-14.15625 23.507812-22.605469 39.011719-22.605469 15.507812 0 30.089843 8.449219 39.011718 22.605469 1.960938 3.109375 5.328125 4.96875 9.003906 4.96875h.015626c11.324218 0 20.933593 7.488281 24.128906 17.773437h-144.320313c3.199219-10.285156 12.808594-17.773437 24.148438-17.773437zm420.9375 48.171875h-469.914063v-15.121094h469.914063zm0 0"/></svg>