<svg id="Capa_1" enable-background="new 0 0 512.017 512.017" height="512" viewBox="0 0 512.017 512.017" width="512" xmlns="http://www.w3.org/2000/svg"><g><g><path d="m241.408 377.104c7.994 7.446 19.896 8.842 29.394 3.446l35.049-19.909c5.16-2.931 11.489-2.898 16.618.087l98.255 48.339c7.625 4.437 10.473 14.047 6.497 21.922l-5.025 13.912-18.495 36.63c-9.614 19.04-32.042 27.728-51.994 20.188-104.896-39.635-201.86-139.632-201.86-139.632s-99.997-96.964-139.633-201.86c-7.539-19.953 1.148-42.381 20.188-51.994l36.63-18.495 12.912-4.025c7.875-3.976 17.485-1.128 21.922 6.496l49.339 97.255c2.985 5.129 3.018 11.458.087 16.618l-19.909 35.049c-5.396 9.499-4 21.401 3.446 29.394z" fill="#ffe187"/><path d="m466.177 217.182c48.191-48.191 47.441-122.169-.251-170.669-27.956-28.43-63.538-42.472-100.483-38.031-26.397 3.173-51.958 14.76-72.209 34.796-39.978 39.552-47.387 99.465-22.243 146.573 1.278 2.395 1.591 5.187.889 7.809l-13.106 48.913c-1.072 3.999 2.588 7.659 6.588 6.588l48.912-13.106c2.629-.704 5.426-.383 7.827.898 13.647 7.281 28.369 11.831 43.358 13.649 36.54 4.43 72.672-9.375 100.718-37.42z" fill="#ea7bc1"/><g><path d="m468.926 44.513c-27.956-28.43-66.537-40.464-103.482-36.023 26.977 3.244 53.065 15.259 73.482 36.023 47.692 48.5 47.442 126.478-.749 174.669-20.399 20.399-46.138 32.183-72.716 35.399 36.54 4.431 74.67-7.354 102.716-35.399 48.191-48.191 48.441-126.17.749-174.669z" fill="#ea5bb1"/></g><path d="m422.724 409.067-100.255-58.339c-5.129-2.985-11.458-3.018-16.618-.087l-35.049 19.909c-9.499 5.396-21.401 4-29.394-3.446l-96.579-96.579c-7.446-7.994-8.842-19.896-3.446-29.394l19.909-35.049c2.931-5.16 2.898-11.489-.087-16.618l-58.338-100.254c-4.437-7.625-14.047-10.473-21.922-6.497l-13.912 7.025c2.869 1.504 5.362 3.801 7.103 6.794l62.243 106.965c3.185 5.472 3.22 12.225.093 17.73l-21.242 37.395c-5.757 10.134-4.268 22.833 3.676 31.362l103.044 103.042c8.529 7.945 21.227 9.434 31.362 3.677l37.395-21.242c5.505-3.127 12.258-3.092 17.73.092l106.965 62.243c2.993 1.742 5.289 4.234 6.794 7.104l7.025-13.912c3.976-7.875 1.128-17.484-6.497-21.921z" fill="#ffd26f"/><g fill="#ffe187"><path d="m198.119 79.272 14.679 8.028c3.468 1.896 3.468 6.877 0 8.773l-14.679 8.028c-.839.459-1.529 1.149-1.988 1.988l-8.028 14.679c-1.897 3.468-6.877 3.468-8.774 0l-8.028-14.679c-.459-.839-1.149-1.529-1.988-1.988l-14.679-8.028c-3.468-1.896-3.468-6.877 0-8.773l14.679-8.028c.839-.459 1.529-1.149 1.988-1.988l8.028-14.679c1.897-3.468 6.877-3.468 8.774 0l8.028 14.679c.459.839 1.149 1.529 1.988 1.988z"/><path d="m434.729 315.839 14.679 8.028c3.468 1.897 3.468 6.877 0 8.774l-14.679 8.028c-.839.459-1.529 1.149-1.988 1.988l-8.028 14.679c-1.897 3.468-6.877 3.468-8.774 0l-8.028-14.679c-.459-.839-1.149-1.529-1.987-1.988l-14.679-8.028c-3.468-1.897-3.468-6.877 0-8.774l14.679-8.028c.839-.459 1.529-1.149 1.987-1.987l8.028-14.679c1.897-3.468 6.877-3.468 8.774 0l8.028 14.679c.459.838 1.149 1.528 1.988 1.987z"/></g></g><g><path d="m380.476 163.982c4.143 0 7.5-3.358 7.5-7.5v-80.357c0-4.142-3.357-7.5-7.5-7.5s-7.5 3.358-7.5 7.5v80.357c0 4.142 3.357 7.5 7.5 7.5z"/><path d="m372.976 186.958c0 4.142 3.358 7.5 7.5 7.5s7.5-3.358 7.5-7.5c0-4.142-3.358-7.5-7.5-7.5s-7.5 3.357-7.5 7.5z"/><path d="m151.045 102.649 14.035 7.676 7.678 14.037c2.193 4.011 6.395 6.502 10.967 6.502s8.773-2.492 10.967-6.502l7.678-14.037 14.035-7.676c4.011-2.193 6.502-6.396 6.502-10.967s-2.491-8.773-6.502-10.967l-14.036-7.677-7.677-14.037c-2.193-4.01-6.395-6.501-10.967-6.501s-8.773 2.491-10.967 6.502l-7.677 14.037-14.036 7.677c-4.011 2.193-6.502 6.396-6.502 10.967 0 4.57 2.492 8.772 6.502 10.966zm21.877-16.803c2.105-1.151 3.822-2.871 4.968-4.968l5.835-10.668 5.836 10.67c1.149 2.1 2.866 3.817 4.967 4.967h.001l10.668 5.835-10.669 5.835c-2.101 1.149-3.817 2.867-4.968 4.968l-5.835 10.668-5.832-10.664c-1.148-2.103-2.867-3.822-4.972-4.974l-10.668-5.835z"/><path d="m453.015 317.282-14.037-7.678-7.676-14.035c-2.193-4.011-6.396-6.502-10.967-6.502s-8.773 2.492-10.967 6.502l-7.677 14.037-14.038 7.677c-4.01 2.193-6.501 6.396-6.501 10.966s2.491 8.773 6.502 10.967l14.036 7.676 7.678 14.037c2.193 4.011 6.396 6.503 10.967 6.503s8.773-2.492 10.967-6.503l7.676-14.036 14.037-7.677c4.011-2.193 6.502-6.396 6.502-10.967 0-4.572-2.491-8.774-6.502-10.967zm-21.877 16.802c-2.102 1.149-3.819 2.867-4.969 4.969l-5.834 10.668-5.836-10.669c-1.149-2.101-2.866-3.818-4.968-4.968l-10.669-5.834 10.667-5.834c2.102-1.148 3.82-2.866 4.971-4.969l5.835-10.668 5.835 10.669c1.149 2.102 2.868 3.819 4.971 4.968l10.666 5.834z"/><path d="m426.505 402.579-35.683-20.764c-3.582-2.083-8.172-.871-10.255 2.71-2.083 3.58-.87 8.171 2.71 10.254l35.683 20.764c4.188 2.437 5.758 7.734 3.573 12.059l-25.52 50.542c-7.898 15.641-26.238 22.753-42.648 16.552-102.069-38.566-198.169-136.849-199.128-137.837-.054-.055-.108-.109-.163-.163-.339-.329-34.329-33.44-69.972-81.097-2.48-3.317-7.181-3.996-10.498-1.514-3.316 2.48-3.995 7.181-1.514 10.498 35.45 47.4 69.471 80.858 71.453 82.796 1.782 1.832 25.581 26.132 62.212 55.506 34.504 27.669 87.201 65.022 142.307 85.844 5.748 2.172 11.657 3.208 17.476 3.208 18.081-.001 35.268-10.007 43.865-27.031l25.52-50.542c5.757-11.4 1.62-25.361-9.418-31.785z"/><path d="m17.239 157.571c-6.203-16.417.914-34.752 16.554-42.649l50.542-25.52c4.321-2.182 9.622-.614 12.059 3.573l58.339 100.255c1.636 2.811 1.654 6.314.048 9.141l-19.909 35.049c-7.05 12.411-5.25 27.767 4.479 38.211.061.065.122.128.185.191l96.579 96.579c.064.063.127.125.191.185 6.195 5.771 14.116 8.752 22.128 8.751 5.495 0 11.034-1.404 16.083-4.272l35.049-19.909c2.829-1.608 6.332-1.588 9.142.047l36.147 21.034c3.58 2.082 8.171.87 10.255-2.711 2.083-3.58.87-8.171-2.71-10.254l-36.147-21.034c-7.408-4.311-16.641-4.359-24.094-.126l-35.049 19.909c-6.648 3.776-14.865 2.838-20.489-2.33l-96.375-96.375c-5.166-5.622-6.105-13.84-2.329-20.488l19.909-35.049c4.233-7.453 4.184-16.686-.126-24.094l-58.342-100.253c-6.425-11.038-20.385-15.175-31.785-9.418l-50.542 25.52c-22.502 11.362-32.743 37.732-23.823 61.34 11.249 29.772 28.324 61.684 50.751 94.849 2.319 3.431 6.983 4.331 10.414 2.012 3.432-2.32 4.332-6.983 2.012-10.414-21.774-32.2-38.31-63.069-49.146-91.75z"/><path d="m474.283 39.249c-24.597-25.014-57.596-38.924-92.918-39.167-.315-.002-.626-.003-.94-.003-34.953 0-67.757 13.425-92.456 37.862-20.56 20.339-33.593 46.177-37.692 74.718-.589 4.1 2.258 7.901 6.357 8.49 4.092.59 7.901-2.257 8.49-6.357 3.631-25.279 15.178-48.167 33.394-66.188 22.067-21.832 51.413-33.737 82.744-33.522 31.307.215 60.545 12.533 82.326 34.684 21.68 22.047 33.551 51.226 33.429 82.163-.122 30.954-12.245 60.056-34.135 81.945-18.025 18.025-40.854 29.43-66.02 32.98-24.354 3.437-49.646-1.011-71.222-12.523-4.096-2.186-8.819-2.727-13.3-1.526l-45.363 12.155 12.155-45.362c1.202-4.483.663-9.2-1.517-13.283-6.381-11.955-10.59-24.851-12.511-38.33-.584-4.101-4.389-6.951-8.482-6.367-4.101.584-6.951 4.382-6.367 8.483 2.168 15.214 6.921 29.775 14.128 43.277.381.713.474 1.542.261 2.335l-13.106 48.914c-1.205 4.497.041 9.147 3.334 12.439 3.292 3.293 7.942 4.537 12.439 3.333l48.912-13.106c.794-.211 1.631-.116 2.356.271 18.992 10.133 40.526 15.419 62.117 15.418 6.1 0 12.209-.422 18.261-1.276 28.414-4.009 54.187-16.882 74.531-37.227 24.706-24.707 38.389-57.554 38.527-92.492.139-34.917-13.262-67.852-37.732-92.738z"/></g></g></svg>